<?xml version="1.0" encoding="UTF-8"?><svg id="a" xmlns="http://www.w3.org/2000/svg" viewBox="0 0 566.93 146.55"><defs><style>.b{fill:#003f75;}</style></defs><path class="b" d="M16.78,78.46c-2.7,0-4.9,2.22-4.9,4.94v10.47h9.79v-10.47c0-2.72-2.2-4.94-4.9-4.94Zm2.47,12.99h-4.95v-8.05c0-1.39,1.11-2.52,2.47-2.52s2.47,1.13,2.47,2.52v8.05ZM176.28,47.42c0,7.39,2.7,14.22,14.67,14.22s14.39-7.61,14.39-14.38V25.82h5.3v-2.43h-13.06v2.43h5.33v18.66c0,3.05,0,7.45-1.81,10.15-2.14,3.16-6.2,4.58-9.87,4.58s-7.45-1.69-8.75-5.42c-.68-1.97-.9-6.1-.9-8.29V25.82h5.31v-2.43h-15.92v2.43h5.31v21.6Zm380.08,37.8h0l-13.36,29.23-13.54-29.23h-10.68v2.42h5.35v32.51h-5.35v2.42h13.11v-2.42h-5.34v-4.22h.03c0-.18,0-.32,0-.52v-24.1h.12l14.33,31.26h.9l14.27-31.26h.11v24.1c0,.2,0,.36,0,.55v4.19h-5.31v2.42h15.94v-2.42h-5.3v-3.97c0-.26,0-.48,0-.76v-23.02c0-.29,0-.51,0-.77v-3.98h5.3v-2.42h-10.56Zm-73.05,34.93h-17.54v-15.85h12.65v5.31h2.43v-13.05h-2.43v5.32h-12.64v-14.23h15.65v3.83h2.43v-6.26h-28.66v2.43h5.28s0,31.64,0,32.51h-5.28v2.43h30.54v-6.43h-2.43v4.01Zm-423.95,6.41h-2.17l-2.31,2.3,.98,.98,1.08-1.08v7.98h-1.51v1.38h5.41v-1.38h-1.47v-10.18ZM385.94,42.62c4.91-1.02,9.25-4.05,9.25-9.48,0-3.27-1.96-9.75-12.97-9.75h-16.19v2.43h5.31V58.37h-5.31v2.43h15.91v-2.43h-5.31v-15.01h3.83l12.66,17.38v.05h7.8v-2.43h-3.65l-11.34-15.75Zm-8.06-1.07h-1.24v-15.73h4.64c4.57,0,7.6,3.03,7.6,7.55,0,6.26-5.64,8.18-11,8.18Zm52.28,43.67h0v2.42h5.3v14.68h-21.79v-14.68h5.31v-2.43h-15.92v2.43h5.3v32.51h-5.3v2.43h15.92v-2.43h-5.31v-15.4h21.8v15.4h-5.3v.5h0v1.91h0v.02h15.92v-2.43h-5.3v-32.51h5.3v-2.43h-15.91Zm75.36-55.72c1.69,0,3.05-1.36,3.05-3.05s-1.35-3.04-3.05-3.04-3.05,1.35-3.05,3.04,1.35,3.05,3.05,3.05Zm18.4,0c1.69,0,3.04-1.36,3.04-3.05s-1.35-3.04-3.04-3.04-3.05,1.35-3.05,3.04,1.35,3.05,3.05,3.05Zm14.17-3.67h10.55V58.37h-5.29v2.42h15.95v-2.42h-5.37V25.82h10.58v3.85h2.43v-6.27h-31.28v6.27h2.43v-3.84Zm-30.73,34.96h0v-1.08h0v-1.34h-4.68l3.77-9.09h14.6l3.95,9.09h-4.48v1.34h0v1.09h14.73v-2.43h-4.78l-14.58-34.97h-.99l-14.91,34.96h-4.34v2.43h11.72Zm6.5-28.79l6.28,14.85h-12.68l6.4-14.85Zm-210.03,28.79h1.01l12.75-31.14c.5-1.21,1.09-2.74,1.52-3.83h4.35v-2.43h-11.55v2.43h4.66c-.7,1.76-1.88,4.72-2.19,5.47l-8.58,21.04-9.2-21.27c-.38-.88-1.56-3.58-2.28-5.24h4.89v-2.43h-15.29v2.43h4.7l15.21,34.97Zm55.77,0v-6.43h-2.43v4.01h-17.54v-15.85h12.65v5.31h2.43v-13.05h-2.43v5.32h-12.64v-14.27h15.65v3.87h2.43v-6.29h-28.66v2.43h5.28s0,31.68,0,32.54h-5.28v2.43h30.54Zm49.59,0h.03v-5.3c2.27,3.66,6.28,6.12,10.9,6.12,.24,0,.47,0,.7,0,7.16,0,11.79-4.9,11.79-10.77,0-11.06-20.43-12.41-20.43-20.25,0-3.38,3.27-5.8,6.49-5.8,6.19,0,10.02,4.76,10.43,10.67v.06h2.43v-12.11h-2.43v4.68c-2.17-3.3-5.89-5.5-10.14-5.5h-.06c-5.87,0-11.06,4.22-11.06,9.98,0,11.17,19.86,12.18,19.86,20.76,0,4.12-3.66,6.1-7.44,6.1-3.31,0-10.1-1.57-11.03-10.4v-.25h-2.43v12.03h2.4Zm46.99-2.42h-5.35V25.82h5.35v-2.43h-15.91v2.43h5.29V58.37h-5.29v2.43h15.91v-2.43Zm38.81-28.7v-6.27h-31.28v6.27h2.43v-3.84h10.55V58.37h-5.29v2.42h15.95v-2.42h-5.37V25.82h10.58v3.85h2.43ZM112.48,56.18h-9.79v14.52h9.79v-14.52Zm-2.42,12.1h-4.95v-9.68h4.95v9.68ZM73.28,0C32.87,0,0,32.87,0,73.28s32.87,73.28,73.28,73.28,73.28-32.87,73.28-73.28S113.68,0,73.28,0ZM2.42,73.28c0-4.26,.4-8.43,1.12-12.49H26.59v12.61H2.42s0-.08,0-.13Zm2.46,18.18h-.1c-.9-3.4-1.55-6.9-1.94-10.48,1.15,.22,2.04,1.2,2.04,2.43v8.05Zm.59,2.42h1.83v-10.47c0-2.65-2.08-4.8-4.67-4.92-.06-.88-.12-1.77-.15-2.66H26.59v20.82H6.38c-.32-.92-.63-1.84-.91-2.77Zm8.84,18.69v-5.89c0-1.39,1.11-2.52,2.47-2.52s2.47,1.13,2.47,2.52v8.05h-3.44c-.51-.71-1.02-1.43-1.51-2.16Zm5.86,7.6c-.87-.98-1.71-1.99-2.52-3.02h4.03v-10.47c0-2.72-2.2-4.94-4.9-4.94s-4.9,2.22-4.9,4.94v1.97c-1.77-3.06-3.31-6.26-4.61-9.58H26.59v21.1h-6.42Zm53.1,23.97c-19.96,0-37.99-8.27-50.86-21.55H124.14c-12.88,13.28-30.9,21.55-50.86,21.55Zm.51-112.02c12.31,0,22.6,6.84,27.68,12.7l.46,.33,14.63,5.92H30.28l15.35-5.92,.48-.34c5.08-5.86,15.38-12.7,27.68-12.7Zm-7.99-1.53v-2.32c1.38-1.5,4.33-2.49,7.53-2.49s6.03,.95,7.44,2.4v2.19c-2.23-.43-4.56-.67-6.98-.67-2.78,0-5.45,.33-7.99,.89Zm51.71,22.9v19.92H29.01v-19.92H117.5Zm0,22.34h0v20.82h-5.01v-9.96h0v-3.26c0-2.72-2.2-4.94-4.89-4.94s-4.9,2.22-4.9,4.94v3.26h-7.37v-3.27c0-2.7-2.2-4.89-4.9-4.89s-4.9,2.2-4.9,4.89v3.27h-7.37v-3.27c0-2.7-2.2-4.89-4.9-4.89s-4.9,2.2-4.9,4.89v3.27h-7.37v-3.32c0-2.7-2.2-4.9-4.9-4.9s-4.89,2.2-4.89,4.9v3.32h-7.37v-3.32c0-2.7-2.2-4.9-4.9-4.9s-4.9,2.2-4.9,4.9v13.28h-5.05v-20.82H117.5Zm.01,23.24v21.1h-5.02v-21.1h5.02Zm-13.74-2.42H36.48v-7.54H110.07v7.54h-6.3Zm6.3,2.42v21.1h-3.88v-21.1h3.88Zm-6.3,0v21.1h-12.66v-21.1h12.66Zm-15.08,0v21.1h-3.88v-21.1h3.88Zm-6.3,0v21.1h-18.23v-21.1h18.23Zm-20.65,0v21.1h-3.88v-21.1h3.88Zm-6.3,0v21.1h-12.66v-21.1h12.66Zm-15.08,0v21.1h-3.88v-21.1h3.88Zm-3.88-12.38v-3.32c0-1.37,1.11-2.48,2.47-2.48s2.47,1.11,2.47,2.48v3.32h-4.95Zm17.16,0v-3.32c0-1.37,1.11-2.48,2.48-2.48s2.48,1.11,2.48,2.48v3.32h-4.95Zm17.16,0v-3.27c0-1.37,1.11-2.47,2.47-2.47s2.47,1.11,2.47,2.47v3.27h-4.95Zm17.16,0v-3.27c0-1.37,1.11-2.47,2.47-2.47s2.47,1.11,2.47,2.47v3.27h-4.95Zm17.16,0v-3.26c0-1.39,1.11-2.52,2.48-2.52s2.48,1.13,2.48,2.52v3.26h-4.95Zm-71.07,12.38v21.1h-5.05v-21.1h5.05Zm98.19,13.5c-.49,.73-1,1.45-1.51,2.16h-3.44v-8.05c0-1.39,1.11-2.52,2.47-2.52s2.48,1.13,2.48,2.52v5.88Zm2.42-3.91v-1.97c0-2.72-2.2-4.94-4.9-4.94s-4.9,2.22-4.9,4.94v10.47h4.03c-.81,1.03-1.65,2.04-2.52,3.02h-6.44v-21.1h19.33c-1.3,3.33-2.84,6.53-4.61,9.58Zm7.11-17.19h-.1v-8.05c0-1.23,.89-2.21,2.04-2.43-.39,3.58-1.04,7.08-1.94,10.48Zm2.15-12.97c-2.59,.12-4.67,2.27-4.67,4.92v10.47h1.83c-.28,.93-.59,1.86-.91,2.77h-20.23v-20.82h24.13c-.03,.89-.08,1.78-.15,2.66Zm.21-5.21s0,.08,0,.13h-24.2v-12.61h23.08c.72,4.06,1.12,8.22,1.12,12.49Zm-24.2-14.91v-4.89h2.85v-2.51l-19.67-7.96c-4.26-4.83-11.26-9.86-19.92-12.1v-3.62l-.26-.33c-1.61-2.01-4.77-3.32-8.43-3.56V9.02h-2.42v14.38c-3.68,.26-6.92,1.65-8.45,3.7l-.24,.32v3.77c-8.18,2.36-14.8,7.16-18.89,11.8l-20.7,7.98v2.51h2.81v4.9H4C10.85,26.4,39.26,2.42,73.28,2.42s62.42,23.98,69.27,55.95h-22.62Zm78.15,26.85h0v2.42h5.3v14.68h-21.79v-14.68h5.31v-2.43h-15.92v2.43h5.3v32.51h-5.3v2.43h15.92v-2.43h-5.31v-15.4h21.8v15.4h-5.3v.5h0v1.91h0v.02h15.92v-2.43h-5.3v-32.51h5.3v-2.43h-15.91Zm-102.76-29.04h-9.79v14.52h9.79v-14.52Zm-2.42,12.1h-4.95v-9.68h4.95v9.68Zm41.76,15.12c0-2.72-2.2-4.94-4.9-4.94s-4.9,2.22-4.9,4.94v10.47h9.79v-10.47Zm-2.42,8.05h-4.95v-8.05c0-1.39,1.11-2.52,2.47-2.52s2.48,1.13,2.48,2.52v8.05ZM43.83,56.18h-9.79v14.52h9.79v-14.52Zm-2.42,12.1h-4.95v-9.68h4.95v9.68Zm36.77-7.18c0-2.7-2.2-4.9-4.9-4.9s-4.9,2.2-4.9,4.9v9.6h9.79v-9.6Zm-2.42,7.18h-4.95v-7.18c0-1.37,1.11-2.48,2.47-2.48s2.47,1.11,2.47,2.48v7.18Zm141.89-9.91v2.43h13.03v-2.43h-5.3c0-.86,0-27.1,0-27.1l24.6,30.15h1.02s0-34.72,0-35.59h5.3v-2.43h-13.06v2.43h5.33c0,.87,0,25.68,0,25.68l-22.88-28.11h-8.99v2.43h4.15c.73,.87,2.13,2.53,2.1,2.53,0,0,0,29.15-.01,30.01h-5.29Zm164.27,29.26h5.33c0,.87,0,25.68,0,25.68l-22.88-28.11h-8.99v2.43h4.15c.73,.87,2.13,2.53,2.1,2.53,0,0,0,29.13-.01,29.99h-5.29v2.43h13.03v-2.43h-5.3c0-.86,0-27.08,0-27.08l24.6,30.15h1.02s0-34.72,0-35.59h5.3v-2.43h-13.06v2.43ZM61,56.18h-9.79v14.52h9.79v-14.52Zm-2.42,12.1h-4.95v-9.68h4.95v9.68Zm233.33,16.94h0v2.42h5.3v14.68h-21.79v-14.68h5.31v-2.43h-15.91v2.43h5.3v32.51h-5.3v2.43h15.91v-2.43h-5.31v-15.4h21.8v15.4h-5.3v.5h0v1.91h0v.02h15.92v-2.43h-5.3v-32.51h5.3v-2.43h-15.91Zm53.46,34.93h-17.54v-15.85h12.65v5.31h2.43v-13.05h-2.43v5.32h-12.64v-14.23h15.65v3.83h2.43v-6.26h-28.66v2.43h5.28s0,31.64,0,32.51h-5.28v2.43h30.54v-6.43h-2.43v4.01Zm-265.89,6.41h-2.17l-2.31,2.3,.98,.98,1.08-1.08v7.98h-1.51v1.38h5.41v-1.38h-1.47v-10.18Zm159.93-42.17c-11.51,0-18.92,9.07-18.92,19.51s7.42,19.52,18.92,19.52,18.93-9.08,18.93-19.52-7.42-19.51-18.93-19.51Zm0,37.01c-9.57,0-12.38-9.09-12.38-17.5s2.8-17.49,12.38-17.49,12.39,9.08,12.39,17.49-2.81,17.5-12.39,17.5Zm-170.49,10.4c.67-.46,1.12-.87,1.38-1.24,.33-.48,.49-.96,.49-1.44,0-.71-.31-1.35-.92-1.89-.59-.53-1.38-.8-2.33-.8s-1.78,.29-2.39,.85c-.61,.58-.92,1.27-.92,2.07,0,.52,.14,1.02,.42,1.5,.22,.39,.65,.85,1.3,1.42-.59,.46-1.01,.89-1.29,1.3-.36,.53-.54,1.07-.54,1.62,0,.7,.26,1.34,.77,1.93,.64,.72,1.53,1.08,2.65,1.08,1.02,0,1.86-.3,2.51-.9,.65-.61,.98-1.35,.98-2.2,0-.67-.23-1.32-.67-1.92-.26-.36-.73-.82-1.43-1.38Zm-2.36-3.72c.25-.23,.58-.34,1-.34s.72,.11,.94,.34c.23,.23,.33,.55,.33,.97,0,.34-.07,.64-.2,.9-.08,.16-.3,.46-.81,.95l-.96-.79c-.22-.21-.39-.43-.5-.65-.11-.21-.16-.41-.16-.61,0-.29,.12-.53,.36-.76Zm2.14,8.49c-.26,.24-.6,.36-1.05,.36s-.79-.15-1.07-.46c-.29-.32-.43-.75-.43-1.31,0-.43,.09-.82,.27-1.19,.14-.28,.33-.55,.59-.81,.91,.74,1.53,1.35,1.84,1.81,.15,.22,.22,.47,.22,.76,0,.33-.12,.6-.37,.84Zm20.32-4.77c.67-.46,1.12-.87,1.38-1.24,.33-.48,.49-.96,.49-1.44,0-.71-.31-1.35-.92-1.89-.59-.53-1.38-.8-2.33-.8s-1.78,.29-2.39,.85c-.61,.58-.92,1.27-.92,2.07,0,.52,.14,1.02,.42,1.5,.22,.39,.65,.85,1.3,1.42-.59,.46-1.01,.89-1.29,1.3-.36,.53-.54,1.07-.54,1.62,0,.7,.26,1.34,.77,1.93,.64,.72,1.53,1.08,2.65,1.08,1.02,0,1.86-.3,2.51-.9,.65-.61,.98-1.35,.98-2.2,0-.67-.23-1.32-.67-1.92-.26-.36-.73-.82-1.43-1.38Zm-2.36-3.72c.25-.23,.58-.34,1-.34s.72,.11,.94,.34c.23,.23,.33,.55,.33,.97,0,.34-.07,.64-.2,.9-.08,.16-.29,.46-.81,.95l-.96-.79c-.22-.21-.39-.43-.5-.65-.11-.21-.16-.41-.16-.61,0-.29,.12-.53,.36-.76Zm2.14,8.49c-.26,.24-.6,.36-1.05,.36s-.79-.15-1.07-.46c-.29-.32-.43-.75-.43-1.31,0-.43,.09-.82,.27-1.19,.14-.28,.33-.55,.59-.81,.91,.74,1.53,1.35,1.84,1.81,.15,.22,.22,.47,.22,.76,0,.33-.12,.6-.37,.84ZM278.06,58.37h-5.35V25.82h5.35v-2.43h-15.91v2.43h5.29V58.37h-5.29v2.43h15.91v-2.43Zm216.25,29.28h5.29v32.51h-5.29v2.43h15.91v-2.43h-5.35v-32.51h5.35v-2.43h-15.91v2.43Z"/></svg>